# xmcd
#
# Track frame offsets: 
#        150
#        14964
#        26864
#        38700
#        50513
#        63588
#        76625
#        90362
#        103207
#        118860
#        133569
#        147749
#        162019
#        174245
#        186892
#        198867
#        212033
#        225048
#        239050
#        252238
#
# Disc length: 3551 seconds
#
# Revision: 3
# Processed by: cddbd v1.5.2PL0 Copyright (c) Steve Scherf et al.
# Submitted via: ExactAudioCopyFreeDBPlugin 1.0
#
DISCID=150ddd14
DTITLE=T-Bone Walker - This Life I'm Living
DYEAR=1900
DGENRE=Blues
TTITLE0=I Got A Break Baby
TTITLE1=Sail On Boogie
TTITLE2=Low Down Dirty Shame
TTITLE3=You Don't Love Me Blues
TTITLE4=Mean Old World
TTITLE5=I'm Still In Love With You
TTITLE6=T-Bone Boogie
TTITLE7=Mean Old World Blues
TTITLE8=Evening
TTITLE9=T-Bone Blues
TTITLE10=Trinity River Blues
TTITLE11=Wichita Falls Blue
TTITLE12=No Worry Blues
TTITLE13=Don't Leave Me Baby
TTITLE14=Bobby Sox Blues
TTITLE15=I'm Gonna Find My Baby
TTITLE16=My Baby Left Me
TTITLE17=Come Back To Me Baby
TTITLE18=She's Going To Ruin Me
TTITLE19=I Can't Stand Being Away From You
EXTD=
EXTT0=
EXTT1=
EXTT2=
EXTT3=
EXTT4=
EXTT5=
EXTT6=
EXTT7=
EXTT8=
EXTT9=
EXTT10=
EXTT11=
EXTT12=
EXTT13=
EXTT14=
EXTT15=
EXTT16=
EXTT17=
EXTT18=
EXTT19=
PLAYORDER=
